# xmcd CD database file
#
# Track frame offsets:
#	150
#	16005
#	29672
#	46233
#	63094
#	81100
#	94005
#	107483
#	124126
#	137465
#
# Disc length: 2028 seconds
#
# Revision: 0
# Processed by: cddbd v1.5.2PL0 Copyright (c) Steve Scherf et al.
# Submitted via: CDex 1.70beta2
#
DISCID=7207ea0a
DTITLE=Crystal Sands - The Hard Times
DYEAR=2009
DGENRE=Country
TTITLE0=Chris Young's Guitar
TTITLE1=Match Made in a Honky Tonk
TTITLE2=The Hard Times
TTITLE3=He Ain't Coming Back
TTITLE4=He Never Held Me
TTITLE5=What Are We Together For?
TTITLE6=That Woman
TTITLE7=Lyin' Eyes
TTITLE8=Nashville, Tennessee
TTITLE9=Hurts More at Night
EXTD=YEAR: 2009
EXTT0=
EXTT1=
EXTT2=
EXTT3=
EXTT4=
EXTT5=
EXTT6=
EXTT7=
EXTT8=
EXTT9=
PLAYORDER=
